<svg xmlns="http://www.w3.org/2000/svg" width="40" height="40" fill="none"><path d="M20 0C8.954 0 0 8.954 0 20s8.954 20 20 20 20-8.954 20-20S31.046 0 20 0zm.01 5c4.074 0 4.583.018 6.19.094 1.594.07 2.684.328 3.64.697a7.31 7.31 0 012.656 1.729 7.034 7.034 0 011.719 2.668c.37.949.627 2.044.697 3.638.07 1.6.088 2.11.088 6.184 0 4.073-.018 4.582-.088 6.181-.07 1.595-.328 2.684-.697 3.64a7.341 7.341 0 01-1.73 2.655 7.337 7.337 0 01-2.657 1.729c-.95.369-2.046.627-3.64.697-1.601.07-2.111.088-6.186.088-4.075 0-4.583-.018-6.184-.088-1.594-.07-2.685-.328-3.64-.697a7.336 7.336 0 01-2.657-1.729 7.324 7.324 0 01-1.736-2.66c-.37-.95-.627-2.046-.697-3.64-.07-1.6-.088-2.11-.088-6.184 0-4.073.018-4.582.088-6.188.07-1.594.328-2.685.697-3.64A7.352 7.352 0 017.521 7.52c.833-.839 1.672-1.348 2.663-1.735.95-.37 2.046-.627 3.64-.697 1.6-.07 2.111-.088 6.186-.088zm0 2.701c-4.01 0-4.486.018-6.063.088-1.46.065-2.257.31-2.785.516A4.707 4.707 0 009.437 9.43a4.644 4.644 0 00-1.119 1.724c-.205.528-.45 1.318-.515 2.784-.07 1.576-.088 2.057-.088 6.06s.017 4.476.088 6.059c.064 1.459.31 2.255.515 2.783a4.706 4.706 0 001.125 1.724c.522.522 1.027.85 1.725 1.12.528.205 1.32.45 2.785.515 1.577.07 2.058.088 6.063.088 4.004 0 4.477-.017 6.06-.088 1.46-.064 2.258-.31 2.785-.515a4.706 4.706 0 001.725-1.125 4.644 4.644 0 001.12-1.725c.204-.527.45-1.318.515-2.783.07-1.577.088-2.058.088-6.06 0-4.003-.018-4.477-.088-6.06-.065-1.459-.31-2.255-.516-2.783a4.706 4.706 0 00-1.125-1.724 4.646 4.646 0 00-1.725-1.12c-.527-.204-1.319-.45-2.785-.515-1.577-.07-2.05-.088-6.06-.088zm8.013 2.492a1.798 1.798 0 110 3.598 1.8 1.8 0 110-3.598zm-8.013 2.104a7.71 7.71 0 017.709 7.707 7.708 7.708 0 01-7.71 7.705c-4.256 0-7.71-3.45-7.71-7.705s3.454-7.707 7.71-7.707zm0 2.707a5.002 5.002 0 00-5.002 5 5 5 0 0010.002 0 5 5 0 00-5-5z" fill="#f7f7f7"/></svg>