<svg xmlns="http://www.w3.org/2000/svg" width="40" height="40" fill="none"><path d="M20 0C8.954 0 0 8.954 0 20s8.954 20 20 20 20-8.954 20-20S31.046 0 20 0zm.81 7.951c5.667 0 9.396 4.1 9.4 8.5 0 5.825-3.234 10.172-8.005 10.172-1.604 0-3.106-.866-3.625-1.848 0 0-.86 3.417-1.045 4.077-.64 2.33-2.533 4.666-2.68 4.857-.1.134-.328.09-.35-.084-.043-.297-.524-3.24.042-5.64l1.91-8.089s-.477-.946-.477-2.347c0-2.2 1.28-3.84 2.866-3.84 1.346 0 2 1.012 2 2.227 0 1.355-.865 3.381-1.31 5.265-.375 1.575.787 2.86 2.341 2.86 2.811 0 4.705-3.611 4.705-7.891 0-3.248-2.19-5.686-6.176-5.686-4.5 0-7.306 3.356-7.306 7.106 0 1.291.381 2.208.98 2.912.273.325.312.455.211.824-.074.274-.234.934-.303 1.195-.099.375-.403.51-.744.37-2.07-.845-3.039-3.115-3.039-5.67 0-4.215 3.556-9.27 10.606-9.27z" fill="#f7f7f7"/></svg>